<svg id="レイヤー_1" data-name="レイヤー 1" xmlns="http://www.w3.org/2000/svg" viewBox="0 0 114.89 141.73"><defs><style>.cls-1{fill:#f09493;}</style></defs><path class="cls-1" d="M65.18,16.7c0,9.22-5.41,16.69-12.08,16.69S41,25.92,41,16.7,46.43,0,53.1,0,65.18,7.47,65.18,16.7ZM88.63,0C82,0,76.55,7.47,76.55,16.7S82,33.39,88.63,33.39s12.08-7.47,12.08-16.69S95.3,0,88.63,0Zm27.6,18.81c-6.67,0-12.08,7.47-12.08,16.69s5.41,16.7,12.08,16.7,12.08-7.48,12.08-16.7S122.9,18.81,116.23,18.81Zm-90.73,0c-6.67,0-12.08,7.47-12.08,16.69S18.83,52.2,25.5,52.2s12.08-7.48,12.08-16.7S32.17,18.81,25.5,18.81ZM70.87,43.73v15a34,34,0,0,1,26.76,55L47.55,49.62a49,49,0,0,0,23.32,92.11v-15a34,34,0,0,1-26.77-55l50.08,64.11A49,49,0,0,0,70.87,43.73Z" transform="translate(-13.42)"/></svg>